<?xml version="1.0" encoding="utf-8"?>
<!-- Generator: Adobe Illustrator 15.0.0, SVG Export Plug-In . SVG Version: 6.00 Build 0)  -->
<!DOCTYPE svg PUBLIC "-//W3C//DTD SVG 1.1//EN" "http://www.w3.org/Graphics/SVG/1.1/DTD/svg11.dtd">
<svg version="1.1" xmlns="http://www.w3.org/2000/svg" xmlns:xlink="http://www.w3.org/1999/xlink" x="0px" y="0px"
	 width="272.667px" height="201.333px" viewBox="0 0 272.667 201.333" enable-background="new 0 0 272.667 201.333"
	 xml:space="preserve">
	<g>
<g id="_x34_04">
	<ellipse opacity="0.3" fill="#231F20" enable-background="new    " cx="65.033" cy="185.73" rx="17.048" ry="4.989"/>
	<ellipse opacity="0.3" fill="#231F20" enable-background="new    " cx="231.347" cy="182.363" rx="18.818" ry="4.032"/>
	<ellipse opacity="0.3" fill="#231F20" enable-background="new    " cx="134.966" cy="181.77" rx="31.417" ry="4.625"/>
	<path fill="#E8F1F7" stroke="#231F20" stroke-linecap="round" stroke-linejoin="round" stroke-miterlimit="10" d="M254.056,135.563
		c0.929-12.046,8.398-58.208-23.168-63.728c0,0-36.282-9.62-57.332,44.142c-22.977,58.686,39.156,51.811,39.156,51.811
		s-2.328,16.639,14.229,16.649c18.045,0.011,23.252-2.683,22.283-17.203c11.887,0.413,20.79-3.114,20.79-12.019
		C270.013,141.108,268.669,135.563,254.056,135.563z M208.107,134.692c-13.536-0.634-0.424-21.35,8.128-20.398
		c0,0,4.856-1.25,4.751,9.692C220.884,134.292,217.271,135.124,208.107,134.692z"/>
	<path fill="#E8F1F7" stroke="#231F20" stroke-linecap="round" stroke-linejoin="round" stroke-miterlimit="10" d="M87.432,138.586
		c0.929-12.047,8.398-58.209-23.169-63.729c0,0-36.282-9.62-57.332,44.143c-22.977,58.685,39.156,51.811,39.156,51.811
		s-2.327,16.639,14.23,16.648c18.045,0.012,23.252-2.682,22.282-17.203c11.888,0.414,20.79-3.114,20.79-12.018
		C103.389,144.131,102.045,138.586,87.432,138.586z M41.483,137.715c-13.536-0.633-0.423-21.348,8.128-20.397
		c0,0,4.858-1.251,4.751,9.692C54.262,137.314,50.647,138.146,41.483,137.715z"/>
	<path opacity="0.2" fill="#231F20" enable-background="new    " d="M86.595,97.175c0,0-10.72,13.285-8.595,40.16
		s10.142,32.804,10.142,32.804s3.901-0.146,5.255-1.267c-1.021-1.414-13.355-29.705-5.605-66.58
		C87.542,100.167,86.595,97.175,86.595,97.175z"/>
	<path fill="#E8F1F7" stroke="#231F20" stroke-linecap="round" stroke-linejoin="round" stroke-miterlimit="10" d="M187.149,123.963
		c-3.583-27.322-17.021-52.854-55.132-51.509c0,0-40.497,3.359-47.44,36.281c-6.817,32.325-2.317,75.248,47.44,75.696
		C181.775,184.879,190.732,151.286,187.149,123.963z M133.851,144.571c-18.823-0.17-20.526-16.406-17.947-28.637
		c2.626-12.453,17.947-13.725,17.947-13.725c14.417-0.508,19.501,9.15,20.855,19.485
		C156.063,132.032,152.673,144.741,133.851,144.571z"/>
	<path opacity="0.2" fill="#231F20" enable-background="new    " d="M108.929,79.254c0,0-3.168,13.538,2.862,40.06
		c1.862,8.19,3.156,7.228,3.156,7.228s-0.579-8,2.195-12.25c-1.351-6.25-4.056-32.899-2.704-37.513
		C112.417,77.792,108.929,79.254,108.929,79.254z"/>
</g>
<g id="blind-boy">
	<g id="boy_1_">
		<path fill="#595453" stroke="#231F20" stroke-linecap="round" stroke-linejoin="round" stroke-miterlimit="10" d="
			M137.375,131.858c1.299,0.547,2.305,7.134,2.892,12.189c5.314-1,8.878-3.36,11.167-6.41c-0.403-8.708-1.787-16.416-1.787-16.416
			c-2.501-1.326-4.686-4.354-32.504,1.902c1.029,4.474,1.583,10.153,1.88,15.277c2.623,3.309,6.71,5.611,12.795,6.077
			C131.195,134.843,135.321,130.995,137.375,131.858z"/>
		<g id="boy">
			<g id="hand-left">
				<path fill="#C7ECEC" stroke="#231F20" stroke-linecap="round" stroke-linejoin="round" stroke-miterlimit="10" d="
					M140.83,63.858c0,0,32.717,2.491,46.153,2.098c0.112,1.958,0.05,5.532,0.05,5.532s-33.378-0.59-47.131-2.854"/>
				<path fill="#95B1B1" stroke="#231F20" stroke-linecap="round" stroke-linejoin="round" stroke-miterlimit="10" d="
					M185.583,64.999c0,0-1.385,5.637,0.301,8.111c2.656,0.755,4.339,0,5.672,0c-0.458-4.292-0.482-7.916-0.482-7.916
					S187.41,65.356,185.583,64.999z"/>
				<path opacity="0.3" fill="#231F20" enable-background="new    " d="M185.583,65.924c0,0-1.793,5.317-3.168,5.419
					c1.563-0.004,3.168,0,3.168,0V65.924"/>
				<path fill="#E8C8B3" stroke="#231F20" stroke-linecap="round" stroke-linejoin="round" stroke-miterlimit="10" d="
					M200.177,59.636c-0.948-0.67-10.408-2.474-10.415,0.749c-0.007,3.292,0.144,5.045,0.144,5.045s-1.517-3.488-3.406-3.728
					c-3.56-0.452-3.553,2.264-1.84,3.096c2.313,1.125,3.188,3.046,3.188,3.046s1.656,5.615,5.148,6.073
					c1.851,0.243,4.93,0.235,6.308-3.38C200.349,67.449,199.302,65.928,200.177,59.636z"/>
				<path fill="#E8C8B3" stroke="#231F20" stroke-linecap="round" stroke-linejoin="round" stroke-miterlimit="10" d="
					M196.597,61.703c0,0-0.123-4.819,1.887-5.333c2.01-0.513,5.212,0.983,5.859,2.037c0.63,1.024,0.851,3.917-4.297,1.428
					c-0.129-0.062-0.112,1.849-0.194,3.053"/>
				<path fill="#E8C8B3" stroke="#231F20" stroke-linecap="round" stroke-linejoin="round" stroke-miterlimit="10" d="
					M192.789,60.714c0,0,0.037-5.205,2.109-5.265c3.988-0.116,6.461-2.32,7.207-1.334c1.719,2.272-0.518,3.741-5.26,4.812
					c-0.118,0.417-0.124,0.566-0.247,2.775"/>
				<path fill="#E8C8B3" stroke="#231F20" stroke-linecap="round" stroke-linejoin="round" stroke-miterlimit="10" d="
					M189.763,60.824c0,0-0.443-4.859,1.611-5.136c3.324-0.448,5.346-2.657,5.992-1.604c0.629,1.025,0.846,2.948-4.091,4.261
					c-0.139,0.037-0.042,1.23-0.165,3.44"/>
				<path opacity="0.3" fill="#231F20" enable-background="new    " d="M193.307,61.703c0,0,1.125-0.514,1.094-2.389
					c0.781-0.531,3.468-1.436,3.539-3.178c-0.894,0.419-4.633,2.334-4.633,2.334V61.703z"/>
				<path opacity="0.3" fill="#231F20" enable-background="new    " d="M196.962,61.785c0.063-0.013,0.85-0.575,0.978-2.054
					c0.69-0.188,4.661-1.459,4.832-2.979c-0.871,0.417-5.81,2.25-5.81,2.25V61.785z"/>
			</g>
			<path fill="#C7ECEC" stroke="#231F20" stroke-linecap="round" stroke-linejoin="round" stroke-miterlimit="10" d="
				M119.179,59.353c0,0-6.895,7.391-6.494,27.771c0.333,16.942,4.702,37.177,4.702,37.177s18.42-4.577,32.259-3.079
				c-0.904-16.739-11.813-39.249-5.952-60.076C138.738,61.523,134.966,62.04,119.179,59.353z"/>
			
				<path fill="none" stroke="#231F20" stroke-width="0.5" stroke-linecap="round" stroke-linejoin="round" stroke-miterlimit="10" d="
				M137.503,105.833c0,0,0.918,12.666,0.416,15.293"/>
			<path fill="#363838" stroke="#231F20" stroke-linecap="round" stroke-linejoin="round" stroke-miterlimit="10" d="
				M134.343,69.017c0,0-0.509,35.065-1.009,39.899c1.917,3.084,3.806,5.75,3.806,5.75s3.027-4.5,3.443-6.416
				c-0.332-2.834-4.556-39.3-4.556-39.3S135.514,69.664,134.343,69.017z"/>
			<path fill="#363838" stroke="#231F20" stroke-linecap="round" stroke-linejoin="round" stroke-miterlimit="10" d="
				M134.966,64.678c0,0-3.841,1.274-2.674,3.36s1.833,1.961,3.042,1.899s2.042-0.713,2.167-2.7
				C137.626,65.25,134.966,64.678,134.966,64.678z"/>
			<path fill="#C7ECEC" stroke="#231F20" stroke-linecap="round" stroke-linejoin="round" stroke-miterlimit="10" d="
				M124.301,65.227c0,0,1.334,2.666,7.459,4.528c1.448-1.716,2.323-2.921,3.292-4.896c1.392,1.58,3.052,4.364,3.052,4.364
				s2.28-0.972,3.28-4.645c0-1.566,0-2.066,0-2.066s-13.167,0.958-15.667,0C123.218,61.554,124.301,65.227,124.301,65.227z"/>
			<path fill="#E8C8B3" stroke="#231F20" stroke-linecap="round" stroke-linejoin="round" stroke-miterlimit="10" d="
				M126.009,10.643c0,0-13.712,4.923-18.371,18.923c-3.745,11.254-1.225,16.087,1.798,24.168
				c3.023,8.082,10.078,11.777,23.18,11.105c13.102-0.671,22.846-6.209,23.252-22.29c0.301-11.883-6.009-26.868-12.326-30.037
				C137.402,9.432,133.698,9.366,126.009,10.643z"/>
			
				<line fill="none" stroke="#231F20" stroke-linecap="round" stroke-linejoin="round" stroke-miterlimit="10" x1="131.493" y1="34.183" x2="132.165" y2="34.574"/>
			
				<line fill="none" stroke="#231F20" stroke-linecap="round" stroke-linejoin="round" stroke-miterlimit="10" x1="150.655" y1="32.172" x2="150.354" y2="32.564"/>
			<path fill="#231F20" d="M142.421,48.269c0,0-3.358-0.012-3.022,2.675s2.729,0.126,2.729,0.126S144.773,48.269,142.421,48.269z"/>
			
				<path fill="#E8C8B3" stroke="#231F20" stroke-width="0.5" stroke-linecap="round" stroke-linejoin="round" stroke-miterlimit="10" d="
				M143.694,38.299c0,0,1.302-1.26,2.353-0.672c1.049,0.588,1.621,1.415,1.213,2.477c-0.942,2.463-4.828,0.938-4.828,0.938"/>
			<g id="hand-right">
				<path fill="#C7ECEC" stroke="#231F20" stroke-linecap="round" stroke-linejoin="round" stroke-miterlimit="10" d="
					M118.406,75.67c0,0,23.962,1.35,37.401,0.957c0.112,1.958,0.05,5.532,0.05,5.532s-22.586,0.464-36.338-1.8"/>
				<path fill="#E8C8B3" stroke="#231F20" stroke-linecap="round" stroke-linejoin="round" stroke-miterlimit="10" d="
					M155.875,77.404l6.256-0.348c0,0-0.5-7.117,0.449-7.787c0.947-0.67,10.15-1.81,9.771,1.391
					c-0.438,3.702-0.337,5.256-0.337,5.256s1.517-3.488,3.406-3.728c3.56-0.452,3.553,2.264,1.84,3.096
					c-2.313,1.125-3.188,3.046-3.188,3.046s-1.656,5.615-5.148,6.073c-1.85,0.243-5.465,0.235-6.844-3.38
					c-1.265-0.566-6.209,0-6.209,0L155.875,77.404z"/>
				<path fill="#C7ECEC" stroke="#231F20" stroke-linecap="round" stroke-linejoin="round" stroke-miterlimit="10" d="
					M154.408,75.67v7.956c0,0,4.811-1.142,5.643-0.749c-1.426-3.61-0.153-7.011-0.153-7.011S156.233,76.027,154.408,75.67z"/>
				<path fill="#E8C8B3" stroke="#231F20" stroke-linecap="round" stroke-linejoin="round" stroke-miterlimit="10" d="
					M168.925,72.189c0,0-0.123-4.819,1.887-5.333c2.01-0.513,6.342-0.166,6.99,0.888c0.629,1.024-0.29,3.327-5.428,2.577
					c-0.142-0.02-0.195,1.728-0.277,2.932"/>
				<path fill="#E8C8B3" stroke="#231F20" stroke-linecap="round" stroke-linejoin="round" stroke-miterlimit="10" d="
					M165.117,71.201c0,0,0.1-4.751,2.109-5.265c2.01-0.513,6.927-2.789,7.673-1.803c1.72,2.272-0.983,4.21-5.728,5.281
					c-0.117,0.417-0.123,0.566-0.246,2.775"/>
				<path fill="#E8C8B3" stroke="#231F20" stroke-linecap="round" stroke-linejoin="round" stroke-miterlimit="10" d="
					M162.083,71.006c0,0,0.146-4.598,2.108-5.265c1.638-0.557,4.854-2.224,5.501-1.171c0.631,1.025,0.848,2.948-4.09,4.261
					c-0.139,0.037-0.042,1.23-0.165,3.44"/>
				<path fill="#E8C8B3" stroke="#231F20" stroke-linecap="round" stroke-linejoin="round" stroke-miterlimit="10" d="M162,79.254
					c0,0-0.184,0.97,0.082,1.77"/>
				<path opacity="0.3" fill="#231F20" enable-background="new    " d="M154,76.779c0,0-1.793,5.317-3.168,5.419
					c1.563-0.004,3.168,0,3.168,0V76.779"/>
				<path opacity="0.3" fill="#231F20" enable-background="new    " d="M162.009,77.063c0,0-0.213,3.344,0.07,3.721
					c-0.715-0.185-2.352-0.13-2.352-0.13s-0.125-3.082,0.104-3.416C160.229,77.321,162.009,77.063,162.009,77.063z"/>
				<path opacity="0.3" fill="#231F20" enable-background="new    " d="M165.634,72.189c0,0,1.125-0.514,1.095-2.389
					c0.78-0.531,3.467-1.436,3.539-3.178c-0.894,0.419-4.634,2.334-4.634,2.334V72.189z"/>
				<path opacity="0.3" fill="#231F20" enable-background="new    " d="M169.291,72.271c0.063-0.013,0.85-0.575,0.978-2.054
					c0.69-0.188,4.661-1.459,4.832-2.979c-0.871,0.417-5.81,2.25-5.81,2.25V72.271z"/>
			</g>
			<path fill="#363838" stroke="#231F20" stroke-linecap="round" stroke-linejoin="round" stroke-miterlimit="10" d="
				M108.563,43.072c0,0,5.938,0.512,6.771,0.428c-0.333-1.833-2.234-7.514-0.042-10.936c2.896-4.521,4.375-10.981,1.708-14.814
				c3.417-1,8.104-1.75,16.354,0.167s8.937-3.083,10.042-4.667s5.637,4.878,5.637,4.878s1.729-4.377-0.949-7.461
				c-3.836-4.42-7.181-6.217-13.117-7.625c-7.092-1.682-18.924-0.875-30.049,10.375c-3.098,3.893-13.75,14-0.083,35.5
				C107.667,49,108.563,43.072,108.563,43.072z"/>
			<path opacity="0.3" fill="#231F20" enable-background="new    " d="M111.278,52.172c0,0,8.139,12,29.306,6.747
				c8.269-2.22,13.023-5.527,13.023-5.527s-6.105,12.464-24.69,11.286C110.333,63.5,109.75,53.393,109.75,53.393
				S110.723,52.928,111.278,52.172z"/>
			<path fill="#E8C8B3" stroke="#231F20" stroke-linecap="round" stroke-linejoin="round" stroke-miterlimit="10" d="
				M108.954,43.266c0,0-3.604-2.11-5.564,0.914c-2.636,4.066,0.909,7.367,2.073,8.119c2.687,1.735,5.151,1.288,6.047-0.504"/>
			
				<path fill="#E8C8B3" stroke="#231F20" stroke-width="0.5" stroke-linecap="round" stroke-linejoin="round" stroke-miterlimit="10" d="
				M138.677,59.033c0,0,1.041,1.458,3.041,0.75c0.9-0.418,0.959-1.173,0.959-1.173s1.016,0.299,1.625,0.215
				c0.677-0.094,1.207-0.75,0.957-1.75"/>
			
				<path fill="#E8C8B3" stroke="#231F20" stroke-width="0.5" stroke-linecap="round" stroke-linejoin="round" stroke-miterlimit="10" d="
				M108.333,45.75c0,0-1.667-0.625-2.375,0.458s0.25,3.083,1.375,3.375"/>
			<path opacity="0.3" fill="#231F20" enable-background="new    " d="M142.431,41.26c0,0,0.236,1.594,1.986,1.688
				c1.75,0.094,2.094-1.688,2.094-1.688S144.601,41.948,142.431,41.26z"/>
			<path opacity="0.5" fill="#231F20" enable-background="new    " d="M113.391,6.765c0,0-13.137,13.137-4.537,17.214
				s6.998,6.588,5.812,9.919c-0.562,0.831-0.898,6.025,0.551,9.053c-0.551,0.55-3.345,0.383-6.3,0
				c-2.955-0.383-4.521-1.223-6.229,2.007c-0.5-1.063-7.554-11.895-3.429-22.645S113.391,6.765,113.391,6.765z"/>
			<path opacity="0.3" fill="#231F20" enable-background="new    " d="M115.616,67.237c0,0,3.759,1.646,7.634,2.517
				c10.708,1.564,18.056-1.601,19.181-4.171c0.638-2.049,0.672-2.725,0.672-2.725s-11.017,4.718-25.748-0.237
				C116.656,63.517,115.616,67.237,115.616,67.237z"/>
			<path opacity="0.3" fill="#231F20" enable-background="new    " d="M108.479,45.854l-0.146,1.104c0,0-2.063-0.62-2.25,1.013
				C105.724,47.274,105.271,45.187,108.479,45.854z"/>
			
				<path fill="none" stroke="#231F20" stroke-width="0.5" stroke-linecap="round" stroke-linejoin="round" stroke-miterlimit="10" d="
				M122.543,84c0,0,2.948,0.5,7.318,0c0.057,1.5,0,6.688,0,6.688l-3.403,1.563l-3.915-1.188
				C122.543,91.062,122.231,86.75,122.543,84z"/>
			
				<path fill="none" stroke="#231F20" stroke-width="0.5" stroke-linecap="round" stroke-linejoin="round" stroke-miterlimit="10" d="
				M122.41,86.385c0,0,4.51,0.844,7.477,0"/>
			<path fill="#231F20" d="M118.083,126.917c0,0,13.042-4.582,31.75-3.125c-0.168-0.916-0.361-2.588-0.361-2.588
				s-19.013-0.938-31.722,3.096C117.875,125.083,118.083,126.917,118.083,126.917z"/>
			
				<path fill="#595453" stroke="#231F20" stroke-width="0.5" stroke-linecap="round" stroke-linejoin="round" stroke-miterlimit="10" d="
				M121.125,122.667c0,0-0.583,0.33-0.271,1.654c0.312,1.325,0.375,2.139,1.063,2.075s0.812-0.774,0.479-2.075
				C122.063,123.021,121.708,122.5,121.125,122.667z"/>
			
				<path fill="#595453" stroke="#231F20" stroke-width="0.5" stroke-linecap="round" stroke-linejoin="round" stroke-miterlimit="10" d="
				M146.671,120.193c0,0-0.643,0.192-0.629,1.554c0.014,1.36-0.104,2.168,0.58,2.258s0.963-0.578,0.924-1.92
				C147.507,120.745,147.276,120.159,146.671,120.193z"/>
			
				<path fill="#9E9E9E" stroke="#231F20" stroke-width="0.5" stroke-linecap="round" stroke-linejoin="round" stroke-miterlimit="10" d="
				M140.393,120.098c-0.827-0.662-3.816-0.088-4.222-0.043c0,0-1.028,0.208-0.938,1.758c0.09,1.551,0.205,2.473,0.99,2.538
				c0.784,0.065,4.61,0.442,4.808-1.513C141.093,122.215,141.227,120.765,140.393,120.098z M139.638,122.482
				c-0.102,1.009-2.075,0.813-2.48,0.78c-0.405-0.033-0.464-0.51-0.511-1.309c-0.047-0.801,0.483-0.908,0.483-0.908
				c0.209-0.021,1.752-0.318,2.178,0.022C139.74,121.413,139.669,122.161,139.638,122.482z"/>
			
				<path fill="#595453" stroke="#231F20" stroke-width="0.5" stroke-linecap="round" stroke-linejoin="round" stroke-miterlimit="10" d="
				M128.375,121.29c0,0-0.613,0.269-0.435,1.619c0.178,1.35,0.16,2.164,0.85,2.17s0.885-0.69,0.684-2.017
				C129.272,121.734,128.972,121.181,128.375,121.29z"/>
			
				<path fill="#9E9E9E" stroke="#231F20" stroke-width="0.5" stroke-linecap="round" stroke-linejoin="round" stroke-miterlimit="10" d="
				M138.792,121.698c0,0-0.172-0.547-2.234-0.234c-0.835,0.127-0.677,1.061-0.109,1.049
				C137.554,122.489,139.062,122.725,138.792,121.698z"/>
		</g>
	</g>
	<g id="glasses">
		<ellipse opacity="0.3" fill="#231F20" enable-background="new    " cx="171.225" cy="198.398" rx="7.917" ry="1.042"/>
		<ellipse opacity="0.3" fill="#231F20" enable-background="new    " cx="142.226" cy="189.194" rx="2.247" ry="0.563"/>
		<ellipse opacity="0.3" fill="#231F20" enable-background="new    " cx="195.177" cy="195.523" rx="7.916" ry="1.042"/>
		<path fill="#5E6060" stroke="#231F20" stroke-linecap="round" stroke-linejoin="round" stroke-miterlimit="10" d="
			M161.841,183.972l-14.155-3.81c0,0-4.667-1.381-5.718,0.465c-1.053,1.846-2.594,6.908-0.365,8.102
			c3.107,1.665,2.018-2.757,1.986-3.688c-0.031-0.932,0.209-4.004,3.041-3.25c2.834,0.754,15.293,4.168,15.293,4.168
			L161.841,183.972z"/>
		<path fill="#363838" stroke="#231F20" stroke-linecap="round" stroke-linejoin="round" stroke-miterlimit="10" d="
			M204.811,180.633l-13.954-4.492c0,0-4.594-1.605-5.734,0.186c-1.14,1.793-2.924,6.775-0.756,8.075
			c3.022,1.813,2.147-2.655,2.162-3.588c0.016-0.933,0.404-3.989,3.196-3.099c2.792,0.89,15.071,4.906,15.071,4.906L204.811,180.633
			z"/>
		<path fill="#D6E5ED" d="M171.462,183.979c0,0-7.625-0.357-8.938,0.854c-1.313,1.209-0.941,10.322,5.875,11.771
			s10.563-1.625,13.375-11.313c0.438-0.813,3-1.938,3.938,0.5c0.938,2.438,2.938,10.188,11.063,8.375
			c5.563-1,6.188-7.326,6.188-7.326s2-5.862-2.313-5.612S171.462,183.979,171.462,183.979z"/>
		<path fill="#5E6060" stroke="#231F20" stroke-linecap="round" stroke-linejoin="round" stroke-miterlimit="10" d="M206.563,180.51
			c-0.241-0.883-1.39-0.852-3.03-0.75c-1.627,0.104-21.215,2.016-21.215,2.016s-11.418,0.713-21.537,1.314
			c-3.093,0.42-1.468,3.234,0.096,3.166c0,3.599,0.318,7.93,4.316,10.5c4.701,3.023,14.66,4.125,17.535-9.5
			c0.375-2.375,1.773-2.401,2.523,0.099s3.813,8.552,9.313,8.22c6.41-0.39,9.582-3.16,10.207-12.66
			C206.22,182.729,206.938,181.885,206.563,180.51z M178.449,191.407c-2.136,4.161-6.682,6.025-11.457,3.459
			c-4.412-2.371-3.896-7.215-3.896-7.215c-0.047-2.25,1.453-2.203,1.453-2.203s6.834-0.357,11.328-0.648
			c5.406-0.352,4.406,2.148,4.406,2.148S180.033,188.323,178.449,191.407z M202.345,184.258c0,0,0.084,1.795-0.75,3.971
			c-1.65,4.303-5.77,6.719-10.346,3.964c-4.023-2.422-3.942-6.851-3.942-6.851c-0.045-1.5,1.58-1.709,1.58-1.709
			s6.638-0.656,11.022-1.334C202.701,181.872,202.345,184.258,202.345,184.258z"/>
		
			<line fill="none" stroke="#FFFFFF" stroke-width="0.5" stroke-linecap="round" stroke-linejoin="round" stroke-miterlimit="10" x1="174.246" y1="187.604" x2="170.871" y2="191.979"/>
		
			<line fill="none" stroke="#FFFFFF" stroke-width="0.5" stroke-linecap="round" stroke-linejoin="round" stroke-miterlimit="10" x1="175.417" y1="189.48" x2="173.074" y2="192.268"/>
		
			<line fill="none" stroke="#FFFFFF" stroke-width="0.5" stroke-linecap="round" stroke-linejoin="round" stroke-miterlimit="10" x1="171.843" y1="187.352" x2="169.5" y2="190.139"/>
		
			<line fill="none" stroke="#FFFFFF" stroke-width="0.5" stroke-linecap="round" stroke-linejoin="round" stroke-miterlimit="10" x1="198.552" y1="184.635" x2="195.177" y2="189.01"/>
		
			<line fill="none" stroke="#FFFFFF" stroke-width="0.5" stroke-linecap="round" stroke-linejoin="round" stroke-miterlimit="10" x1="199.724" y1="186.51" x2="197.38" y2="189.297"/>
		
			<line fill="none" stroke="#FFFFFF" stroke-width="0.5" stroke-linecap="round" stroke-linejoin="round" stroke-miterlimit="10" x1="196.151" y1="184.383" x2="193.807" y2="187.17"/>
	</g>
</g>
	</g>
</svg>
